<svg class="main-svg" xmlns="http://www.w3.org/2000/svg" xmlns:xlink="http://www.w3.org/1999/xlink" width="700" height="500" style="" viewBox="0 0 700 500"><rect x="0" y="0" width="700" height="500" style="fill: rgb(255, 255, 255); fill-opacity: 1;"/><defs id="defs-71932f"><g class="clips"><clipPath id="clip71932fxyplot" class="plotclip"><rect width="508" height="397"/></clipPath><clipPath class="axesclip" id="clip71932fx"><rect x="60" y="0" width="508" height="500"/></clipPath><clipPath class="axesclip" id="clip71932fy"><rect x="0" y="25" width="700" height="397"/></clipPath><clipPath class="axesclip" id="clip71932fxy"><rect x="60" y="25" width="508" height="397"/></clipPath></g><g class="gradients"/></defs><g class="bglayer"/><g class="layer-below"><g class="imagelayer"/><g class="shapelayer"/></g><g class="cartesianlayer"><g class="subplot xy"><g class="layer-subplot"><g class="shapelayer"/><g class="imagelayer"/></g><g class="gridlayer"><g class="x"><path class="xgrid crisp" transform="translate(92.82,0)" d="M0,25v397" style="stroke: rgb(238, 238, 238); stroke-opacity: 1; stroke-width: 1px;"/><path class="xgrid crisp" transform="translate(207.68,0)" d="M0,25v397" style="stroke: rgb(238, 238, 238); stroke-opacity: 1; stroke-width: 1px;"/><path class="xgrid crisp" transform="translate(322.55,0)" d="M0,25v397" style="stroke: rgb(238, 238, 238); stroke-opacity: 1; stroke-width: 1px;"/><path class="xgrid crisp" transform="translate(437.41,0)" d="M0,25v397" style="stroke: rgb(238, 238, 238); stroke-opacity: 1; stroke-width: 1px;"/><path class="xgrid crisp" transform="translate(552.27,0)" d="M0,25v397" style="stroke: rgb(238, 238, 238); stroke-opacity: 1; stroke-width: 1px;"/></g><g class="y"><path class="ygrid crisp" transform="translate(0,384.85)" d="M60,0h508" style="stroke: rgb(238, 238, 238); stroke-opacity: 1; stroke-width: 1px;"/><path class="ygrid crisp" transform="translate(0,343.78)" d="M60,0h508" style="stroke: rgb(238, 238, 238); stroke-opacity: 1; stroke-width: 1px;"/><path class="ygrid crisp" transform="translate(0,302.71)" d="M60,0h508" style="stroke: rgb(238, 238, 238); stroke-opacity: 1; stroke-width: 1px;"/><path class="ygrid crisp" transform="translate(0,261.65)" d="M60,0h508" style="stroke: rgb(238, 238, 238); stroke-opacity: 1; stroke-width: 1px;"/><path class="ygrid crisp" transform="translate(0,220.58)" d="M60,0h508" style="stroke: rgb(238, 238, 238); stroke-opacity: 1; stroke-width: 1px;"/><path class="ygrid crisp" transform="translate(0,179.51)" d="M60,0h508" style="stroke: rgb(238, 238, 238); stroke-opacity: 1; stroke-width: 1px;"/><path class="ygrid crisp" transform="translate(0,138.44)" d="M60,0h508" style="stroke: rgb(238, 238, 238); stroke-opacity: 1; stroke-width: 1px;"/><path class="ygrid crisp" transform="translate(0,97.37)" d="M60,0h508" style="stroke: rgb(238, 238, 238); stroke-opacity: 1; stroke-width: 1px;"/><path class="ygrid crisp" transform="translate(0,56.3)" d="M60,0h508" style="stroke: rgb(238, 238, 238); stroke-opacity: 1; stroke-width: 1px;"/></g></g><g class="zerolinelayer"/><path class="xlines-below"/><path class="ylines-below"/><g class="overlines-below"/><g class="xaxislayer-below"/><g class="yaxislayer-below"/><g class="overaxes-below"/><g class="plot" transform="translate(60, 25)" clip-path="url('#clip71932fxyplot')"><g class="scatterlayer mlayer"><g class="trace scatter tracedaf16f" style="stroke-miterlimit: 2; opacity: 1;"><g class="fills"/><g class="errorbars"/><g class="lines"><path class="js-line" d="M0,259.85L2.73,331.03L3.42,337.49L4.1,334.79L4.79,324.86L6.84,269.39L7.52,248.43L8.89,231L9.57,235.22L10.94,246.32L11.62,239.29L13.67,193.37L14.36,197.26L16.41,273.28L17.09,315.03L19.14,357.99L19.83,361.62L20.51,356.42L21.2,340.93L23.93,251.27L24.61,249.91L27.35,284.56L28.03,275.88L30.08,204.56L30.77,203.44L32.13,243.38L32.82,273.37L34.87,343.65L35.55,351.35L36.24,354.08L36.92,350.08L38.29,311.42L38.97,281.62L40.34,242.93L41.02,243.02L41.71,247.82L42.39,257.99L43.76,274.55L44.44,265.07L46.49,187.98L47.18,184.2L48.54,230.2L49.23,262.79L51.28,322.35L51.96,324.07L52.65,314.24L53.33,284.55L55.38,131.67L56.06,125.74L60.17,212.58L60.85,208.88L62.9,140.88L63.59,142.9L65.64,236.09L66.32,270.39L67.69,305.47L68.37,307.71L69.06,303.93L69.74,277.47L71.79,133.64L72.47,128.42L73.84,153.63L74.52,172.23L76.58,209.19L77.26,202.39L79.31,132.94L79.99,135.7L81.36,189.51L82.05,228.18L84.1,293.72L84.78,298.79L85.46,291.4L86.15,267.54L88.2,128.84L88.88,127.07L90.25,151.19L90.93,166.25L92.99,194.5L93.67,185.99L95.72,118.17L96.4,124.21L97.77,178.33L98.45,214.74L100.51,280.47L101.19,283.15L101.87,273.43L102.56,251.88L104.61,112.14L105.29,110.89L107.34,145.52L108.03,158.39L109.39,170.54L110.08,162.74L112.13,100.07L112.81,104.33L114.18,164.38L114.86,202.09L116.92,273.21L117.6,278.67L118.28,274.38L118.97,254.7L121.7,96.84L122.38,93.96L123.07,98.72L123.75,109.3L125.8,145.09L126.49,141.87L128.54,93.66L129.22,98.93L133.32,239.81L134.01,244.76L134.69,245.23L135.38,233.25L138.11,132.97L138.79,135.57L140.85,185.49L141.53,203.7L142.21,211.87L142.9,206.73L144.95,122.98L145.63,119.93L147,155.25L147.68,182.33L149.73,237.73L150.42,242.16L151.1,243.16L151.78,233.47L154.52,158.09L155.2,162.07L158.62,210.24L159.31,197.51L161.36,98.94L162.04,94.54L163.41,142.47L164.09,176.16L166.14,232.7L166.83,234.87L167.51,227.52L168.19,198.92L170.93,44.47L171.61,64.21L172.3,43.33L172.98,76.55L175.03,124.32L175.71,122.62L177.77,58.77L178.45,65.15L180.5,164.11L181.18,197.69L182.55,234.06L183.24,238.01L183.92,229.76L184.6,207.36L186.65,61.6L187.34,58.63L191.44,183.29L192.12,177.78L194.17,90.62L194.86,90.22L196.23,140.45L196.91,178.84L198.96,244.7L199.64,246.89L200.33,237.93L201.01,208.17L203.06,59.31L203.75,67.74L207.17,204.72L207.85,213.83L208.53,210.24L209.22,179.36L210.58,126.81L211.27,126.65L212.64,177.86L213.32,213.02L214.69,265.76L215.37,273.51L216.05,277.86L216.74,268.81L217.42,243.65L218.1,183.33L219.47,91.21L220.16,97.02L224.26,231.32L224.94,227.3L226.99,130.89L227.68,130.56L229.04,181.16L229.73,215.25L231.78,294.56L232.46,295.88L233.15,286.5L233.83,260.84L235.88,117L236.57,116.02L240.67,198.13L241.35,194.54L243.4,141.54L244.09,148.52L245.45,193.5L246.14,225.82L248.19,290.09L248.87,294.96L249.56,292.92L250.24,278.59L252.97,169.46L253.66,169.91L255.03,200.36L255.71,219.94L257.08,242.5L257.76,236.47L259.81,165.65L260.5,164.69L261.86,199.63L262.55,219.99L264.6,284.93L265.28,289.6L265.97,288.22L266.65,279.27L269.38,198.67L270.07,209.1L272.8,268.94L273.49,275.12L274.17,266.02L274.85,236.98L276.22,187.72L276.9,184.51L278.27,224.24L278.96,253.92L281.01,302.09L281.69,300.94L282.37,291.64L283.06,262.23L285.11,129.46L285.79,126.56L286.48,139.89L287.16,193.32L287.84,173.85L288.53,189.27L289.9,212.97L290.58,206.04L292.63,129.27L293.31,130.44L294.68,185.88L295.36,223.53L297.42,282.25L298.1,283.37L298.78,275.31L299.47,245.61L301.52,100.87L302.2,106.19L304.25,165.08L304.94,198.42L305.62,192.72L306.3,200.86L306.99,202.16L307.67,171.73L309.04,126.85L309.72,132.75L313.83,301.08L314.51,304.12L315.19,296.71L315.88,270.51L317.93,128.07L318.61,123.92L322.03,193.98L322.71,198.88L323.4,191.96L324.08,163.99L325.45,114.81L326.13,112.37L330.23,296.86L330.92,301.38L331.6,298.73L332.29,283.67L334.34,144.79L335.02,140.67L336.39,158.77L337.07,178.31L339.12,211.45L339.81,209.35L341.17,178.36L341.86,127.84L342.54,133.32L343.22,156.22L346.64,327.21L347.33,330.69L348.01,325.35L348.69,300.61L350.75,162.21L351.43,155.86L352.8,164.15L353.48,178.02L355.53,215.3L356.22,209.49L358.27,154.13L358.95,157.33L360.32,201.23L361,229.52L363.05,295.09L363.74,299.44L364.42,296.4L365.1,284.48L367.84,181.07L368.52,178.63L369.89,202.94L370.57,235L371.26,233.41L371.94,241.11L373.31,217.97L373.99,167.5L375.36,152.62L376.04,170.09L377.41,225.16L378.09,260.06L379.46,310.28L380.15,303.84L380.83,309.52L381.51,306.55L384.93,221.24L385.62,219.24L386.3,221.5L386.98,228.87L387.67,226.96L388.35,229.46L389.03,218.94L389.72,195.32L391.08,161.38L391.77,168.73L393.14,235.71L393.82,271.01L395.87,347.58L396.55,346.73L397.24,338.98L397.92,313.32L400.66,149.96L401.34,136.03L402.02,175.02L402.71,135.64L404.08,152.89L404.76,153.28L405.44,155.26L406.13,135.08L406.81,116.82L407.49,116.88L408.18,127.75L409.55,194.48L410.23,237.24L412.28,323.11L412.96,330.3L414.33,300.94L415.01,251.48L417.07,141.57L417.75,130.85L418.43,151.07L419.12,138.56L420.48,172.35L421.17,166.65L421.85,165.72L422.54,148.86L423.9,121.09L424.59,144.18L425.27,150.52L425.95,201.68L428.01,321.95L428.69,316.29L429.37,320.41L430.06,318.66L431.42,249.33L432.11,351.59L433.48,302.84L434.16,294.08L434.84,296.98L435.53,308.71L436.89,323.9L437.58,163.4L438.26,165.07L438.94,147.38L439.63,163.47L440.31,102.99L441,101.96L441.68,120.8L445.1,258.58L445.78,261.43L446.47,249.85L447.15,218.85L449.2,67.32L449.88,54.26L450.57,62.27L451.25,94.69L453.99,164.21L454.67,152.77L456.04,118.53L456.72,115.8L457.41,119.47L458.09,140.14L459.46,206.87L460.14,192.43L460.82,197.6L461.51,210.32L462.87,189.37L463.56,167.59L465.61,19.85L466.29,25.48L466.98,43.53L467.66,88.49L470.4,179.42L471.08,170.9L473.13,95.44L473.81,97.54L475.18,137.71L475.87,166.12L478.6,242.08L479.28,241.21L480.65,211.19L481.34,180.34L482.7,156.02L483.39,163.3L486.8,237.1L487.49,229.52L488.17,213.92L488.86,180.31L490.22,162.4L490.91,186.7L495.01,324.98L495.69,328.82L496.38,324.83L497.06,307.63L499.8,206.99L500.48,202.48L501.85,206.05L502.53,218.82L503.21,220.7L503.9,212.23L505.95,143.76L506.63,152.22L508,201.52" style="vector-effect: non-scaling-stroke; fill: none; stroke: rgb(31, 119, 180); stroke-opacity: 1; stroke-width: 2px; opacity: 1;"/></g><g class="points"/><g class="text"/></g><g class="trace scatter trace316ca0" style="stroke-miterlimit: 2; opacity: 1;"><g class="fills"/><g class="errorbars"/><g class="lines"><path class="js-line" d="M0,273.9L2.73,349.1L3.42,353.51L4.1,351.21L4.79,339.47L6.15,309.1L6.84,286.43L8.2,247.12L8.89,246.42L10.94,261.01L11.62,255.8L13.67,209.34L14.36,215.97L16.41,291.31L17.09,330.51L19.14,372.34L19.83,377.15L20.51,371.25L21.2,355.78L23.93,264.5L24.61,262.19L27.35,295.56L28.03,289.81L30.08,218.39L30.77,219.91L32.13,258.64L32.82,289.58L35.55,363.78L36.24,366.42L36.92,362.83L37.6,349.24L40.34,255.54L41.02,256.27L42.39,271.66L43.07,282L43.76,289.58L44.44,278.31L46.49,200.75L47.18,198.46L48.54,243.79L49.23,277.98L51.28,338.02L51.96,338.53L52.65,329.18L53.33,298.7L55.38,144.72L56.06,136.96L60.17,225.71L60.85,221.69L62.9,153.55L63.59,156.96L67.69,322.91L68.37,325.94L69.06,321.18L69.74,294.18L71.79,145.69L72.47,140.38L73.16,148.16L73.84,168.21L76.58,222.56L77.26,216.39L79.31,144.39L79.99,150.02L81.36,205.7L82.05,244.63L84.1,309.77L84.78,315.03L85.46,307.51L86.15,281.99L88.2,142.1L88.88,140.01L90.25,166.52L90.93,183.38L92.99,209.45L93.67,200.2L95.72,129.88L96.4,138.92L97.77,194.72L98.45,230.39L100.51,295.75L101.19,299.04L101.87,289.25L102.56,267.77L104.61,125.81L105.29,125.12L107.34,161.77L108.03,174.98L109.39,186.95L110.08,179.31L112.13,113.22L112.81,119.69L114.18,181.88L114.86,219.68L116.92,289.61L117.6,296.3L118.28,291.35L118.97,270.6L121.7,110.79L122.38,108.04L123.07,113.67L123.75,125.8L125.8,159.74L126.49,156.16L128.54,110.57L129.22,115.11L133.32,256.2L134.01,260.98L134.69,259.98L135.38,247.87L138.11,149.5L138.79,150.36L142.21,225.82L142.9,219.07L144.95,137.76L145.63,135.28L147,172.55L147.68,201.93L149.73,255.61L150.42,260.79L151.1,260.36L151.78,250.56L154.52,174.44L155.2,175.36L157.94,219.06L158.62,220.93L159.31,210.2L159.99,173.97L161.36,111.72L162.04,109.52L163.41,156.43L164.09,191.33L166.14,248.81L166.83,249.63L167.51,242.25L168.19,214.25L170.93,62.22L171.61,80.35L172.3,61.12L172.98,94.98L175.03,140.25L175.71,138.82L177.77,72.2L178.45,81.24L182.55,248.84L183.24,251.46L183.92,243.38L184.6,220.73L186.65,75.38L187.34,70.11L189.39,143.71L190.07,165.05L191.44,198.56L192.12,193.14L194.17,102.91L194.86,103.34L196.23,153.86L196.91,192.17L198.96,252.16L199.64,252.59L200.33,247.62L201.01,219.44L203.06,68.18L203.75,76.52L207.17,216.91L207.85,225.81L208.53,223.65L209.22,191.99L210.58,136.09L211.27,139.68L212.64,191.76L213.32,224.6L214.69,277.62L215.37,282.4L216.05,286.08L216.74,278.12L217.42,252.44L218.1,196.05L219.47,103.03L220.16,110.22L224.26,242.68L224.94,239.97L226.99,162.51L227.68,163.32L229.04,210.52L229.73,243.23L231.78,300.99L232.46,302.75L233.15,293.09L233.83,269.99L235.88,130.2L236.57,129.46L240.67,212.37L241.35,210.17L243.4,152.72L244.09,161.13L245.45,208.06L246.14,239.85L247.5,293.8L248.19,302.69L248.87,309.12L249.56,305.72L250.92,271.18L251.61,235.16L252.97,187.28L253.66,185.16L257.08,257.81L257.76,249.31L259.81,181.46L260.5,179.06L261.86,217.59L262.55,244.04L264.6,300.51L265.28,304.75L265.97,304.17L266.65,294.5L269.38,215.09L270.07,223.49L272.8,280.65L273.49,286.97L274.17,277.36L274.85,252.29L276.22,202.53L276.9,198.39L278.27,239.92L278.96,269.77L281.01,317.52L281.69,316.22L282.37,307.4L283.06,277.03L285.11,144.64L285.79,144.5L289.9,225.01L290.58,220L292.63,145.51L293.31,148.56L294.68,205.91L295.36,240.64L297.42,289.11L298.1,290.45L298.78,285.25L299.47,256.77L301.52,111.84L302.2,122.01L306.3,215.56L306.99,212.47L309.04,143.13L309.72,145.43L311.77,238.57L312.46,272.34L313.83,306.64L314.51,311.9L315.19,306.62L315.88,280.72L317.93,138.9L318.61,134.42L322.03,205.15L322.71,215.27L323.4,206.5L324.08,178.36L325.45,130.38L326.13,134.62L327.5,192.33L328.18,232.89L330.23,305.65L330.92,312L331.6,308.92L332.29,286.84L334.34,154.69L335.02,152.53L336.39,177.56L337.07,198.23L339.12,229.66L339.81,224.47L341.86,162.61L342.54,166.72L344.59,263.49L345.28,300.5L346.64,341.76L347.33,346.01L348.01,339.4L348.69,314.9L350.75,178.18L351.43,171.72L352.11,174.47L352.8,182.26L355.53,232.64L356.22,228.62L358.27,167.65L358.95,168.14L363.05,312.57L363.74,317.1L365.1,300.86L365.79,273.86L367.84,199.57L368.52,198.06L369.89,219.75L370.57,235L371.94,256.79L372.62,249.79L374.68,171.82L375.36,171.36L376.73,215.29L377.41,242.09L379.46,314.4L380.15,322.06L380.83,322.39L381.51,317.35L382.88,283.7L383.56,258.66L384.93,237.92L385.62,237.06L386.3,235.02L386.98,241.21L387.67,244.81L388.35,244.31L389.03,238.17L389.72,216.34L391.08,174.47L391.77,182.62L395.87,348.52L396.55,355.14L397.24,349.44L397.92,322.74L400.66,158.48L401.34,147L402.02,143.02L402.71,147.94L404.76,167.03L405.44,167.38L407.49,127L408.18,136.84L410.91,281.54L411.6,320.6L412.96,343.92L413.65,339.05L415.01,262.94L415.7,205.05L417.07,148.61L417.75,140.76L418.43,140.59L419.12,146.65L421.17,168.91L421.85,168.78L423.9,127.66L424.59,133.36L426.64,243.03L427.32,280.2L428.69,325.23L429.37,329.87L430.06,326.01L430.74,302.77L433.48,138L434.16,134.54L434.84,138.5L435.53,150.58L437.58,173.42L438.26,170.52L440.31,108.08L441,110.82L443.05,201.66L443.73,231.79L445.1,260.69L445.78,266.38L446.47,256.57L447.15,228L449.2,71.13L449.88,62.65L451.25,92.39L451.94,115L453.99,167.33L454.67,163.69L457.41,66.37L458.09,87.15L461.51,209.88L462.19,210.58L462.87,202.21L463.56,174.05L465.61,32.32L466.29,42.39L470.4,179.84L471.08,183.76L473.13,115.1L473.81,117.42L475.87,185.24L476.55,209.12L478.6,246.18L479.28,247.09L480.65,203.55L481.34,167.65L482.02,150.12L482.7,150.17L483.39,159.66L486.8,243.34L487.49,238.89L489.54,177.85L490.22,173.42L491.59,219L492.27,249.76L493.64,309.71L494.33,325.12L495.69,340.46L496.38,335L498.43,269.87L499.11,242.39L500.48,219.33L501.16,218.65L503.21,237.65L503.9,231.76L505.95,167.2L506.63,169.19L508,221.4" style="vector-effect: non-scaling-stroke; fill: none; stroke: rgb(44, 160, 44); stroke-opacity: 1; stroke-width: 2px; opacity: 1;"/></g><g class="points"/><g class="text"/></g></g></g><g class="overplot"/><path class="xlines-above crisp" style="fill: none;" d="M0,0"/><path class="ylines-above crisp" style="fill: none;" d="M0,0"/><g class="overlines-above"/><g class="xaxislayer-above"><g class="xtick"><text text-anchor="middle" x="0" y="435" transform="translate(92.82,0)" style="font-family: 'Open Sans', verdana, arial, sans-serif; font-size: 12px; fill: rgb(68, 68, 68); fill-opacity: 1; white-space: pre;"><tspan class="line" dy="0em" x="0" y="435">Jan 3</tspan><tspan class="line" dy="1.3em" x="0" y="435">2021</tspan></text></g><g class="xtick"><text text-anchor="middle" x="0" y="435" transform="translate(207.68,0)" style="font-family: 'Open Sans', verdana, arial, sans-serif; font-size: 12px; fill: rgb(68, 68, 68); fill-opacity: 1; white-space: pre;">Jan 10</text></g><g class="xtick"><text text-anchor="middle" x="0" y="435" transform="translate(322.55,0)" style="font-family: 'Open Sans', verdana, arial, sans-serif; font-size: 12px; fill: rgb(68, 68, 68); fill-opacity: 1; white-space: pre;">Jan 17</text></g><g class="xtick"><text text-anchor="middle" x="0" y="435" transform="translate(437.41,0)" style="font-family: 'Open Sans', verdana, arial, sans-serif; font-size: 12px; fill: rgb(68, 68, 68); fill-opacity: 1; white-space: pre;">Jan 24</text></g><g class="xtick"><text text-anchor="middle" x="0" y="435" transform="translate(552.27,0)" style="font-family: 'Open Sans', verdana, arial, sans-serif; font-size: 12px; fill: rgb(68, 68, 68); fill-opacity: 1; white-space: pre;">Jan 31</text></g></g><g class="yaxislayer-above"><g class="ytick"><text text-anchor="end" x="59" y="4.199999999999999" transform="translate(0,384.85)" style="font-family: 'Open Sans', verdana, arial, sans-serif; font-size: 12px; fill: rgb(68, 68, 68); fill-opacity: 1; white-space: pre;">380k</text></g><g class="ytick"><text text-anchor="end" x="59" y="4.199999999999999" transform="translate(0,343.78)" style="font-family: 'Open Sans', verdana, arial, sans-serif; font-size: 12px; fill: rgb(68, 68, 68); fill-opacity: 1; white-space: pre;">400k</text></g><g class="ytick"><text text-anchor="end" x="59" y="4.199999999999999" transform="translate(0,302.71)" style="font-family: 'Open Sans', verdana, arial, sans-serif; font-size: 12px; fill: rgb(68, 68, 68); fill-opacity: 1; white-space: pre;">420k</text></g><g class="ytick"><text text-anchor="end" x="59" y="4.199999999999999" transform="translate(0,261.65)" style="font-family: 'Open Sans', verdana, arial, sans-serif; font-size: 12px; fill: rgb(68, 68, 68); fill-opacity: 1; white-space: pre;">440k</text></g><g class="ytick"><text text-anchor="end" x="59" y="4.199999999999999" transform="translate(0,220.58)" style="font-family: 'Open Sans', verdana, arial, sans-serif; font-size: 12px; fill: rgb(68, 68, 68); fill-opacity: 1; white-space: pre;">460k</text></g><g class="ytick"><text text-anchor="end" x="59" y="4.199999999999999" transform="translate(0,179.51)" style="font-family: 'Open Sans', verdana, arial, sans-serif; font-size: 12px; fill: rgb(68, 68, 68); fill-opacity: 1; white-space: pre;">480k</text></g><g class="ytick"><text text-anchor="end" x="59" y="4.199999999999999" transform="translate(0,138.44)" style="font-family: 'Open Sans', verdana, arial, sans-serif; font-size: 12px; fill: rgb(68, 68, 68); fill-opacity: 1; white-space: pre;">500k</text></g><g class="ytick"><text text-anchor="end" x="59" y="4.199999999999999" transform="translate(0,97.37)" style="font-family: 'Open Sans', verdana, arial, sans-serif; font-size: 12px; fill: rgb(68, 68, 68); fill-opacity: 1; white-space: pre;">520k</text></g><g class="ytick"><text text-anchor="end" x="59" y="4.199999999999999" transform="translate(0,56.3)" style="font-family: 'Open Sans', verdana, arial, sans-serif; font-size: 12px; fill: rgb(68, 68, 68); fill-opacity: 1; white-space: pre;">540k</text></g></g><g class="overaxes-above"/></g></g><g class="polarlayer"/><g class="ternarylayer"/><g class="geolayer"/><g class="funnelarealayer"/><g class="pielayer"/><g class="treemaplayer"/><g class="sunburstlayer"/><g class="glimages"/><defs id="topdefs-71932f"><g class="clips"/><clipPath id="legend71932f"><rect width="112" height="48" x="0" y="0"/></clipPath></defs><g class="layer-above"><g class="imagelayer"/><g class="shapelayer"/></g><g class="infolayer"><g class="legend" pointer-events="all" transform="translate(578.16, 25)"><rect class="bg" shape-rendering="crispEdges" style="stroke: rgb(68, 68, 68); stroke-opacity: 1; fill: rgb(255, 255, 255); fill-opacity: 1; stroke-width: 0px;" width="112" height="48" x="0" y="0"/><g class="scrollbox" transform="translate(0, 0)" clip-path="url('#legend71932f')"><g class="groups"><g class="traces" style="opacity: 1;" transform="translate(0, 14.5)"><text class="legendtext" text-anchor="start" x="40" y="4.680000000000001" style="font-family: 'Open Sans', verdana, arial, sans-serif; font-size: 12px; fill: rgb(68, 68, 68); fill-opacity: 1; white-space: pre;">Demand</text><g class="layers" style="opacity: 1;"><g class="legendfill"/><g class="legendlines"><path class="js-line" d="M5,0h30" style="fill: none; stroke: rgb(31, 119, 180); stroke-opacity: 1; stroke-width: 2px;"/></g><g class="legendsymbols"><g class="legendpoints"/></g></g><rect class="legendtoggle" x="0" y="-9.5" width="106.421875" height="19" style="fill: rgb(0, 0, 0); fill-opacity: 0;"/></g><g class="traces" style="opacity: 1;" transform="translate(0, 33.5)"><text class="legendtext" text-anchor="start" x="40" y="4.680000000000001" style="font-family: 'Open Sans', verdana, arial, sans-serif; font-size: 12px; fill: rgb(68, 68, 68); fill-opacity: 1; white-space: pre;">Generation</text><g class="layers" style="opacity: 1;"><g class="legendfill"/><g class="legendlines"><path class="js-line" d="M5,0h30" style="fill: none; stroke: rgb(44, 160, 44); stroke-opacity: 1; stroke-width: 2px;"/></g><g class="legendsymbols"><g class="legendpoints"/></g></g><rect class="legendtoggle" x="0" y="-9.5" width="106.421875" height="19" style="fill: rgb(0, 0, 0); fill-opacity: 0;"/></g></g></g><rect class="scrollbar" rx="20" ry="3" width="0" height="0" style="fill: rgb(128, 139, 164); fill-opacity: 1;" x="0" y="0"/></g><g class="g-gtitle"><text class="gtitle" x="350" y="12.5" text-anchor="middle" dy="0em" style="font-family: 'Open Sans', verdana, arial, sans-serif; font-size: 17px; fill: rgb(68, 68, 68); opacity: 1; font-weight: normal; white-space: pre;">The US (Lower 48) Demand and Generation of Electricity</text></g><g class="g-xtitle"><text class="xtitle" x="314" y="474" text-anchor="middle" style="font-family: 'Open Sans', verdana, arial, sans-serif; font-size: 14px; fill: rgb(68, 68, 68); opacity: 1; font-weight: normal; white-space: pre;"><tspan class="line" dy="0em" x="314" y="474">Eastern Time</tspan><tspan class="line" dy="1.3em" x="314" y="474"> Source: US Energy Information Administration</tspan></text></g><g class="g-ytitle"><text class="ytitle" transform="rotate(-90,22,223.5)" x="22" y="223.5" text-anchor="middle" style="font-family: 'Open Sans', verdana, arial, sans-serif; font-size: 14px; fill: rgb(68, 68, 68); opacity: 1; font-weight: normal; white-space: pre;">Megawatt-Hour</text></g></g></svg>