<svg class="main-svg" xmlns="http://www.w3.org/2000/svg" xmlns:xlink="http://www.w3.org/1999/xlink" width="700" height="500" style="" viewBox="0 0 700 500"><rect x="0" y="0" width="700" height="500" style="fill: rgb(255, 255, 255); fill-opacity: 1;"/><defs id="defs-c90491"><g class="clips"><clipPath id="clipc90491xyplot" class="plotclip"><rect width="508" height="397"/></clipPath><clipPath class="axesclip" id="clipc90491x"><rect x="60" y="0" width="508" height="500"/></clipPath><clipPath class="axesclip" id="clipc90491y"><rect x="0" y="25" width="700" height="397"/></clipPath><clipPath class="axesclip" id="clipc90491xy"><rect x="60" y="25" width="508" height="397"/></clipPath></g><g class="gradients"/></defs><g class="bglayer"/><g class="layer-below"><g class="imagelayer"/><g class="shapelayer"/></g><g class="cartesianlayer"><g class="subplot xy"><g class="layer-subplot"><g class="shapelayer"/><g class="imagelayer"/></g><g class="gridlayer"><g class="x"><path class="xgrid crisp" transform="translate(92.82,0)" d="M0,25v397" style="stroke: rgb(238, 238, 238); stroke-opacity: 1; stroke-width: 1px;"/><path class="xgrid crisp" transform="translate(207.68,0)" d="M0,25v397" style="stroke: rgb(238, 238, 238); stroke-opacity: 1; stroke-width: 1px;"/><path class="xgrid crisp" transform="translate(322.55,0)" d="M0,25v397" style="stroke: rgb(238, 238, 238); stroke-opacity: 1; stroke-width: 1px;"/><path class="xgrid crisp" transform="translate(437.41,0)" d="M0,25v397" style="stroke: rgb(238, 238, 238); stroke-opacity: 1; stroke-width: 1px;"/><path class="xgrid crisp" transform="translate(552.27,0)" d="M0,25v397" style="stroke: rgb(238, 238, 238); stroke-opacity: 1; stroke-width: 1px;"/></g><g class="y"><path class="ygrid crisp" transform="translate(0,384.96)" d="M60,0h508" style="stroke: rgb(238, 238, 238); stroke-opacity: 1; stroke-width: 1px;"/><path class="ygrid crisp" transform="translate(0,344.13)" d="M60,0h508" style="stroke: rgb(238, 238, 238); stroke-opacity: 1; stroke-width: 1px;"/><path class="ygrid crisp" transform="translate(0,303.31)" d="M60,0h508" style="stroke: rgb(238, 238, 238); stroke-opacity: 1; stroke-width: 1px;"/><path class="ygrid crisp" transform="translate(0,262.49)" d="M60,0h508" style="stroke: rgb(238, 238, 238); stroke-opacity: 1; stroke-width: 1px;"/><path class="ygrid crisp" transform="translate(0,221.66)" d="M60,0h508" style="stroke: rgb(238, 238, 238); stroke-opacity: 1; stroke-width: 1px;"/><path class="ygrid crisp" transform="translate(0,180.84)" d="M60,0h508" style="stroke: rgb(238, 238, 238); stroke-opacity: 1; stroke-width: 1px;"/><path class="ygrid crisp" transform="translate(0,140.01999999999998)" d="M60,0h508" style="stroke: rgb(238, 238, 238); stroke-opacity: 1; stroke-width: 1px;"/><path class="ygrid crisp" transform="translate(0,99.19)" d="M60,0h508" style="stroke: rgb(238, 238, 238); stroke-opacity: 1; stroke-width: 1px;"/><path class="ygrid crisp" transform="translate(0,58.37)" d="M60,0h508" style="stroke: rgb(238, 238, 238); stroke-opacity: 1; stroke-width: 1px;"/></g></g><g class="zerolinelayer"/><path class="xlines-below"/><path class="ylines-below"/><g class="overlines-below"/><g class="xaxislayer-below"/><g class="yaxislayer-below"/><g class="overaxes-below"/><g class="plot" transform="translate(60, 25)" clip-path="url('#clipc90491xyplot')"><g class="scatterlayer mlayer"><g class="trace scatter tracedf8091" style="stroke-miterlimit: 2; opacity: 1;"><g class="fills"/><g class="errorbars"/><g class="lines"><path class="js-line" d="M0,260.61L2.73,331.31L3.42,337.73L4.1,335.05L4.79,325.17L6.84,270.04L7.52,249.2L8.89,231.87L9.57,236.07L10.94,246.09L11.62,239.04L13.67,193.43L14.36,198.34L16.41,273.9L17.09,315.39L19.14,358.1L19.83,361.71L20.51,356.54L21.2,341.15L23.93,252.02L24.61,250.67L27.35,284.1L28.03,275.45L30.08,204.57L30.77,204.48L32.13,244.17L32.82,273.99L34.87,343.85L35.55,351.5L36.24,354.22L36.92,350.25L38.29,311.81L38.97,282.19L40.34,243.73L41.02,243.82L41.71,248.59L42.39,258.71L43.76,275.16L44.44,265.74L46.49,188.08L47.18,185.36L48.54,231.08L49.23,263.48L51.28,322.68L51.96,324.39L52.65,314.61L53.33,285.1L55.38,132.41L56.06,126.75L60.17,213.56L60.85,209.89L62.9,140.99L63.59,144L65.64,236.93L66.32,271.03L67.69,305.9L68.37,308.12L69.06,304.36L69.74,278.06L71.79,133.79L72.47,128.71L73.84,154.97L74.52,173.46L76.58,210.19L77.26,203.43L79.31,133.16L79.99,135.89L81.36,190.63L82.05,229.07L84.1,292.83L84.78,297.81L85.46,290.24L86.15,266.23L88.2,126.99L88.88,124.34L90.25,148.89L90.93,164.06L92.99,193.16L93.67,185.05L95.72,116.93L96.4,122.4L97.77,177.78L98.45,214.33L100.51,280.67L101.19,283.41L101.87,273.68L102.56,252.26L104.61,112.03L105.29,110.64L106.66,130.56L107.34,145.14L109.39,171.11L110.08,163.17L112.13,99.2L112.81,103.27L114.18,164.11L114.86,201.54L116.92,272.72L117.6,278.13L118.28,273.89L118.97,254.31L121.7,97.15L122.38,94.17L123.07,98.88L123.75,109.39L125.8,145.21L126.49,141.99L128.54,92.99L129.22,98.26L133.32,240.06L134.01,244.98L134.69,245.45L135.38,233.55L138.11,133.36L138.79,135.59L140.85,185.03L141.53,203.36L142.21,211.61L142.9,205.51L144.95,122.35L145.63,119.43L147,154.75L147.68,182.69L149.73,237.51L150.42,241.91L151.1,243.06L151.78,233.8L154.52,155.87L155.2,159.32L158.62,208.65L159.31,196.28L161.36,98.5L162.04,94.15L163.41,142.07L164.09,175.72L166.14,234.15L166.83,236.32L167.51,229L168.19,200.82L170.93,45L171.61,49.75L173.66,97.25L174.35,114.18L175.03,127.59L175.71,126.33L176.4,100.63L177.77,60.15L178.45,66.29L180.5,165.29L181.18,198.32L182.55,234.05L183.24,238.04L183.92,229.84L184.6,207.65L186.65,62.61L187.34,59.34L190.07,149.79L190.76,169.29L191.44,182.95L192.12,177.56L194.17,89.47L194.86,89.93L196.23,140.88L196.91,179L198.96,237.96L199.64,241.67L200.33,235.12L201.01,208.32L203.06,59.61L203.75,66.89L207.17,201.04L207.85,210.27L208.53,208.07L209.22,177.89L210.58,125.53L211.27,125.34L212.64,176.11L213.32,210.27L214.69,262.15L215.37,269.53L216.05,272.29L216.74,264.71L217.42,239L218.1,182.41L219.47,90.18L220.16,96.21L224.26,229.11L224.94,226.08L226.99,148.53L227.68,147.06L229.04,197.17L229.73,230.42L231.78,288.39L232.46,290.03L233.15,281.2L233.83,258.54L235.88,117.71L236.57,116.76L240.67,197.97L241.35,194.77L243.4,141.66L244.09,146.42L245.45,193.7L246.14,223.93L248.19,286.8L248.87,291.35L249.56,288.83L250.24,275.87L252.97,168.79L253.66,169.01L255.03,199.11L255.71,218.12L257.08,240.3L257.76,234.51L259.81,164.06L260.5,162.23L261.86,197.28L262.55,224.52L264.6,281.01L265.28,286.22L265.97,285.05L266.65,275.99L269.38,195.84L270.07,206.96L272.8,265.58L273.49,271.43L274.17,262.74L274.85,235.61L276.22,186L276.9,182.55L278.27,221.92L278.96,252.03L281.01,299L281.69,298.12L282.37,289.59L283.06,260.62L285.11,128.35L285.79,126.35L286.48,138.91L287.16,191.43L287.84,172.74L288.53,187.38L289.9,209.49L290.58,203L292.63,128.52L293.31,129.06L294.68,183.6L295.36,220.3L297.42,273.96L298.1,276.71L298.78,270.93L299.47,243.22L301.52,99.7L302.2,108.43L306.3,201.85L306.99,196.34L309.04,128.6L309.72,131.74L311.09,190.25L311.77,224.17L313.83,294L314.51,298.25L315.19,293.98L315.88,270.26L317.93,128.49L318.61,124.08L322.71,201.49L323.4,194.7L325.45,117.19L326.13,119.44L327.5,179.81L328.18,220.63L330.23,293.48L330.92,300.16L331.6,298.09L332.29,277.06L334.34,143.96L335.02,140.16L337.07,181.45L337.76,194.74L339.12,215.35L339.81,212.21L341.86,149.27L342.54,154.05L344.59,250.39L345.28,284.63L346.64,325.64L347.33,330.3L348.01,325.07L348.69,300.39L350.75,163.74L351.43,155.16L352.11,158.48L352.8,166.8L355.53,214.6L356.22,211.32L358.27,152.25L358.95,154.77L363.05,292.94L363.74,298.03L364.42,293.67L365.1,283.4L367.84,182.25L368.52,180.96L369.21,187.22L369.89,200.78L371.94,237.52L372.62,231.54L374.68,156.79L375.36,156.93L376.73,198.43L377.41,224.88L379.46,297.37L380.15,305.74L380.83,306.88L381.51,303.22L384.93,223.7L385.62,221.62L386.3,220.54L386.98,226.07L387.67,227.71L388.35,226.81L389.03,219.53L389.72,198.24L391.08,161.43L391.77,167.55L393.14,237.74L393.82,274.6L395.19,331.18L395.87,335.48L396.55,342.9L397.24,338.01L397.92,314.44L398.61,262.42L400.66,149.36L401.34,138.94L402.02,134.57L402.71,137.77L404.76,157.4L405.44,156.67L407.49,117.59L408.18,127.21L410.23,236.99L410.91,275.11L412.96,329.2L413.65,326.9L414.33,304.13L415.01,255.45L417.07,142.87L417.75,134.92L418.43,135.32L419.12,142.17L421.17,166L421.85,164.78L423.9,120.9L424.59,129.39L425.95,191.63L426.64,233.7L428.69,315.36L429.37,320.92L430.06,317.56L430.74,295.8L433.48,131.64L434.16,126.24L434.84,129.89L435.53,139.29L437.58,163.83L438.26,160.72L440.31,99.82L441,102.65L442.36,157.1L443.05,191.55L445.1,253.64L445.78,257.56L446.47,247.98L447.15,220.07L449.88,51.48L450.57,61.55L453.99,152.53L454.67,150.78L456.72,60.74L457.41,58.13L458.77,106.34L459.46,141.46L461.51,197.82L462.19,198.44L462.87,189.04L463.56,161.54L465.61,19.85L466.29,28.29L470.4,165.83L471.08,170.29L473.13,103.35L473.81,103.65L475.18,143.14L475.87,173.78L477.92,233.36L478.6,239.98L479.28,240.21L479.97,230.09L482.7,157.75L483.39,164.69L486.8,235.82L487.49,231.42L489.54,170.71L490.22,171.89L491.59,215.7L492.27,246.41L494.33,308.6L495.01,318.94L495.69,323.4L496.38,318.51L497.74,281.44L498.43,253.99L499.8,211.18L500.48,204.8L501.16,204.48L501.85,210.38L503.21,222.92L503.9,215.07L505.95,150.88L506.63,152.93L508,201.97" style="vector-effect: non-scaling-stroke; fill: none; stroke: rgb(31, 119, 180); stroke-opacity: 1; stroke-width: 2px; opacity: 1;"/></g><g class="points"/><g class="text"/></g><g class="trace scatter traceee68c7" style="stroke-miterlimit: 2; opacity: 1;"><g class="fills"/><g class="errorbars"/><g class="lines"><path class="js-line" d="M0,274.55L2.05,337.21L2.73,349.26L3.42,353.65L4.1,351.37L6.15,309.51L6.84,286.97L8.2,247.9L8.89,247.2L10.94,261.7L11.62,256.52L13.67,210.34L14.36,216.93L16.41,291.83L17.09,330.79L19.14,372.37L19.83,377.15L20.51,371.29L21.2,355.91L23.93,265.18L24.61,262.88L27.35,296.05L28.03,290.33L30.08,219.34L30.77,220.85L32.13,259.35L32.82,290.1L35.55,363.86L36.24,366.48L36.92,362.91L37.6,349.4L40.34,256.26L41.02,256.99L42.39,272.29L43.07,282.56L43.76,290.1L44.44,278.9L46.49,201.81L47.18,199.52L48.54,244.59L49.23,278.58L51.28,338.26L51.96,338.76L52.65,329.47L53.33,299.17L55.38,146.11L56.06,138.39L60.17,226.62L60.85,222.62L62.9,154.88L63.59,158.27L67.69,323.23L68.37,326.25L69.06,321.51L69.74,294.68L71.79,147.08L72.47,141.8L73.16,149.53L73.84,169.46L76.58,223.48L77.26,217.35L79.31,145.79L79.99,151.38L81.36,206.72L82.05,245.43L84.1,308.79L84.78,313.94L85.46,306.26L86.15,280.59L88.2,140.16L88.88,137.19L90.25,164.13L90.93,181.1L92.99,208.03L93.67,199.17L95.72,129.61L96.4,138.66L97.77,194.22L98.45,229.89L100.51,295.26L101.19,298.6L101.87,289L102.56,267.7L104.61,125.48L105.29,124.4L107.34,161L108.03,174.12L109.39,187.3L110.08,179.36L112.13,113.12L112.81,119.67L114.18,181.27L114.86,218.84L116.92,289L117.6,295.66L118.28,290.75L118.97,270.12L121.7,111.02L122.38,108.16L123.07,113.73L123.75,125.81L125.8,159.78L126.49,156.3L128.54,111.11L129.22,115.61L133.32,256.35L134.01,261.11L134.69,260.14L135.38,248.08L138.11,150.08L138.79,150.67L142.21,225.75L142.9,219.19L144.95,138.59L145.63,136.13L147,173.21L147.68,202.42L149.73,255.72L150.42,260.87L151.1,260.47L151.78,250.74L154.52,173.2L155.2,173.68L158.62,220.27L159.31,210.08L161.36,112.72L162.04,110.53L163.41,157.16L164.09,191.87L166.14,248.25L166.83,248.88L167.51,241.05L168.19,212.8L170.93,56.32L171.61,60.14L175.03,140.86L175.71,140.26L177.77,73.62L178.45,81.23L182.55,249.09L183.24,251.69L183.92,243.67L184.6,221.1L186.65,76.18L187.34,70.7L189.39,142.55L190.07,163.99L191.44,197.47L192.12,192.15L194.17,102.67L194.86,103.52L196.23,153.87L196.91,191.68L198.96,251.19L199.64,251.56L200.33,246.6L201.01,218.66L203.06,68.11L203.75,75.99L207.17,215.6L207.85,224.69L208.53,222.89L209.22,191.77L210.58,136.43L211.27,139.81L212.64,191.58L213.32,224.23L214.69,276.98L215.37,281.67L216.05,285.35L216.74,277.37L217.42,251.54L218.1,195.43L219.47,101.9L220.16,107.96L224.26,239.9L224.94,238.36L226.99,162.64L227.68,160.62L229.04,210.43L229.73,242.83L231.78,300.21L232.46,301.94L233.15,292.39L233.83,269.52L235.88,130.76L236.57,129.94L240.67,210.05L241.35,208.42L243.4,153.79L244.09,160.7L246.14,238.36L246.82,271.28L248.19,299.87L248.87,306.26L249.56,302.95L250.24,290.84L252.97,184.32L253.66,180.02L257.08,252.58L257.76,245.17L259.81,179.1L260.5,176.74L261.86,215.05L262.55,241.52L264.6,297.37L265.28,301.4L265.97,300.62L266.65,290.76L269.38,209.43L270.07,217.76L272.8,276.25L273.49,282.78L274.17,273.7L274.85,249.62L276.22,200.16L276.9,196.05L278.27,237.55L278.96,267.12L281.01,314.51L281.69,313.08L282.37,304.34L283.06,273.91L285.11,140.8L285.79,139.42L289.9,219.9L290.58,216.02L292.63,143.2L293.31,144.89L294.68,202.19L295.36,238.29L297.42,288.12L298.1,289.41L298.78,283.94L299.47,255.68L301.52,110.12L302.2,119.05L306.3,213.25L306.99,209.32L309.04,144.53L309.72,146.74L311.77,238.96L312.46,272.1L313.83,306.19L314.51,311.52L315.19,306.24L315.88,280.62L317.93,139.44L318.61,133.5L322.71,213.15L323.4,205.23L325.45,130.96L326.13,132.67L327.5,192.76L328.18,233.24L330.23,305.63L330.92,312.05L331.6,309.14L332.29,287.34L334.34,155.7L335.02,153.14L336.39,177.2L337.07,198.02L339.12,229.55L339.81,224.37L341.86,163.27L342.54,167.22L344.59,264.94L345.28,298.26L346.64,339.74L347.33,343.96L348.01,337.3L348.69,312.79L350.75,176.83L351.43,170.34L352.11,172.93L352.8,180.42L355.53,230.44L356.22,226.61L358.27,166.23L358.95,167.47L363.05,310.65L363.74,315.18L365.1,299.05L365.79,272.16L367.84,196.32L368.52,194.21L369.89,215.68L370.57,231.08L371.94,253.07L372.62,246.65L374.68,170.28L375.36,169.92L376.73,213.65L377.41,240.38L379.46,312.27L380.15,320.04L380.83,320.4L381.51,315.27L382.88,281.9L383.56,256.47L384.93,234.5L385.62,233.71L386.3,232.09L386.98,238.33L387.67,242.19L388.35,241.97L389.03,236L391.08,172.8L391.77,179.77L395.87,348.39L396.55,354.81L397.24,349.09L397.92,322.49L400.66,158.27L401.34,146.26L402.02,141.73L402.71,146.55L404.76,166.17L405.44,167.16L407.49,128.97L408.18,137.66L412.28,329.18L412.96,340.01L413.65,336.88L414.33,312.9L417.07,152.26L417.75,143.99L418.43,144.63L419.12,152.27L421.17,177.01L421.85,176.57L423.9,132.72L424.59,138.77L426.64,244.18L427.32,280.48L428.69,325.03L429.37,329.44L430.06,325.59L430.74,302.59L433.48,138.91L434.16,134.82L434.84,139.05L435.53,150.21L437.58,173.12L438.26,170.65L440.31,108.85L441,111.35L443.05,202.13L443.73,232.19L445.1,260.85L445.78,266.41L446.47,255.97L447.15,227.39L449.2,69.92L449.88,60.11L450.57,69.63L451.25,89.75L453.99,164.4L454.67,161.34L457.41,66.73L458.09,87.11L461.51,208.65L462.19,209.15L462.87,200.24L463.56,171.99L465.61,29.78L466.29,38.7L470.4,177.75L471.08,182.27L473.13,115.78L473.81,113.97L475.18,155.8L475.87,184.4L477.92,247.47L478.6,253.39L479.28,254.19L479.97,241.79L482.7,170.99L483.39,173.59L486.8,248.14L487.49,242.47L489.54,187.66L490.22,184.49L492.27,260.74L492.96,289.07L495.01,332.01L495.69,336.26L496.38,330.84L497.06,314.99L500.48,215.52L501.16,214.69L503.21,233.85L503.9,228.07L505.95,163.72L506.63,165.87L508,217.62" style="vector-effect: non-scaling-stroke; fill: none; stroke: rgb(44, 160, 44); stroke-opacity: 1; stroke-width: 2px; opacity: 1;"/></g><g class="points"/><g class="text"/></g></g></g><g class="overplot"/><path class="xlines-above crisp" style="fill: none;" d="M0,0"/><path class="ylines-above crisp" style="fill: none;" d="M0,0"/><g class="overlines-above"/><g class="xaxislayer-above"><g class="xtick"><text text-anchor="middle" x="0" y="435" transform="translate(92.82,0)" style="font-family: 'Open Sans', verdana, arial, sans-serif; font-size: 12px; fill: rgb(68, 68, 68); fill-opacity: 1; white-space: pre;"><tspan class="line" dy="0em" x="0" y="435">Jan 3</tspan><tspan class="line" dy="1.3em" x="0" y="435">2021</tspan></text></g><g class="xtick"><text text-anchor="middle" x="0" y="435" transform="translate(207.68,0)" style="font-family: 'Open Sans', verdana, arial, sans-serif; font-size: 12px; fill: rgb(68, 68, 68); fill-opacity: 1; white-space: pre;">Jan 10</text></g><g class="xtick"><text text-anchor="middle" x="0" y="435" transform="translate(322.55,0)" style="font-family: 'Open Sans', verdana, arial, sans-serif; font-size: 12px; fill: rgb(68, 68, 68); fill-opacity: 1; white-space: pre;">Jan 17</text></g><g class="xtick"><text text-anchor="middle" x="0" y="435" transform="translate(437.41,0)" style="font-family: 'Open Sans', verdana, arial, sans-serif; font-size: 12px; fill: rgb(68, 68, 68); fill-opacity: 1; white-space: pre;">Jan 24</text></g><g class="xtick"><text text-anchor="middle" x="0" y="435" transform="translate(552.27,0)" style="font-family: 'Open Sans', verdana, arial, sans-serif; font-size: 12px; fill: rgb(68, 68, 68); fill-opacity: 1; white-space: pre;">Jan 31</text></g></g><g class="yaxislayer-above"><g class="ytick"><text text-anchor="end" x="59" y="4.199999999999999" transform="translate(0,384.96)" style="font-family: 'Open Sans', verdana, arial, sans-serif; font-size: 12px; fill: rgb(68, 68, 68); fill-opacity: 1; white-space: pre;">380k</text></g><g class="ytick"><text text-anchor="end" x="59" y="4.199999999999999" transform="translate(0,344.13)" style="font-family: 'Open Sans', verdana, arial, sans-serif; font-size: 12px; fill: rgb(68, 68, 68); fill-opacity: 1; white-space: pre;">400k</text></g><g class="ytick"><text text-anchor="end" x="59" y="4.199999999999999" transform="translate(0,303.31)" style="font-family: 'Open Sans', verdana, arial, sans-serif; font-size: 12px; fill: rgb(68, 68, 68); fill-opacity: 1; white-space: pre;">420k</text></g><g class="ytick"><text text-anchor="end" x="59" y="4.199999999999999" transform="translate(0,262.49)" style="font-family: 'Open Sans', verdana, arial, sans-serif; font-size: 12px; fill: rgb(68, 68, 68); fill-opacity: 1; white-space: pre;">440k</text></g><g class="ytick"><text text-anchor="end" x="59" y="4.199999999999999" transform="translate(0,221.66)" style="font-family: 'Open Sans', verdana, arial, sans-serif; font-size: 12px; fill: rgb(68, 68, 68); fill-opacity: 1; white-space: pre;">460k</text></g><g class="ytick"><text text-anchor="end" x="59" y="4.199999999999999" transform="translate(0,180.84)" style="font-family: 'Open Sans', verdana, arial, sans-serif; font-size: 12px; fill: rgb(68, 68, 68); fill-opacity: 1; white-space: pre;">480k</text></g><g class="ytick"><text text-anchor="end" x="59" y="4.199999999999999" transform="translate(0,140.01999999999998)" style="font-family: 'Open Sans', verdana, arial, sans-serif; font-size: 12px; fill: rgb(68, 68, 68); fill-opacity: 1; white-space: pre;">500k</text></g><g class="ytick"><text text-anchor="end" x="59" y="4.199999999999999" transform="translate(0,99.19)" style="font-family: 'Open Sans', verdana, arial, sans-serif; font-size: 12px; fill: rgb(68, 68, 68); fill-opacity: 1; white-space: pre;">520k</text></g><g class="ytick"><text text-anchor="end" x="59" y="4.199999999999999" transform="translate(0,58.37)" style="font-family: 'Open Sans', verdana, arial, sans-serif; font-size: 12px; fill: rgb(68, 68, 68); fill-opacity: 1; white-space: pre;">540k</text></g></g><g class="overaxes-above"/></g></g><g class="polarlayer"/><g class="ternarylayer"/><g class="geolayer"/><g class="funnelarealayer"/><g class="pielayer"/><g class="treemaplayer"/><g class="sunburstlayer"/><g class="glimages"/><defs id="topdefs-c90491"><g class="clips"/><clipPath id="legendc90491"><rect width="112" height="48" x="0" y="0"/></clipPath></defs><g class="layer-above"><g class="imagelayer"/><g class="shapelayer"/></g><g class="infolayer"><g class="legend" pointer-events="all" transform="translate(578.16, 25)"><rect class="bg" shape-rendering="crispEdges" style="stroke: rgb(68, 68, 68); stroke-opacity: 1; fill: rgb(255, 255, 255); fill-opacity: 1; stroke-width: 0px;" width="112" height="48" x="0" y="0"/><g class="scrollbox" transform="translate(0, 0)" clip-path="url('#legendc90491')"><g class="groups"><g class="traces" style="opacity: 1;" transform="translate(0, 14.5)"><text class="legendtext" text-anchor="start" x="40" y="4.680000000000001" style="font-family: 'Open Sans', verdana, arial, sans-serif; font-size: 12px; fill: rgb(68, 68, 68); fill-opacity: 1; white-space: pre;">Demand</text><g class="layers" style="opacity: 1;"><g class="legendfill"/><g class="legendlines"><path class="js-line" d="M5,0h30" style="fill: none; stroke: rgb(31, 119, 180); stroke-opacity: 1; stroke-width: 2px;"/></g><g class="legendsymbols"><g class="legendpoints"/></g></g><rect class="legendtoggle" x="0" y="-9.5" width="106.421875" height="19" style="fill: rgb(0, 0, 0); fill-opacity: 0;"/></g><g class="traces" style="opacity: 1;" transform="translate(0, 33.5)"><text class="legendtext" text-anchor="start" x="40" y="4.680000000000001" style="font-family: 'Open Sans', verdana, arial, sans-serif; font-size: 12px; fill: rgb(68, 68, 68); fill-opacity: 1; white-space: pre;">Generation</text><g class="layers" style="opacity: 1;"><g class="legendfill"/><g class="legendlines"><path class="js-line" d="M5,0h30" style="fill: none; stroke: rgb(44, 160, 44); stroke-opacity: 1; stroke-width: 2px;"/></g><g class="legendsymbols"><g class="legendpoints"/></g></g><rect class="legendtoggle" x="0" y="-9.5" width="106.421875" height="19" style="fill: rgb(0, 0, 0); fill-opacity: 0;"/></g></g></g><rect class="scrollbar" rx="20" ry="3" width="0" height="0" style="fill: rgb(128, 139, 164); fill-opacity: 1;" x="0" y="0"/></g><g class="g-gtitle"><text class="gtitle" x="350" y="12.5" text-anchor="middle" dy="0em" style="font-family: 'Open Sans', verdana, arial, sans-serif; font-size: 17px; fill: rgb(68, 68, 68); opacity: 1; font-weight: normal; white-space: pre;">The US (Lower 48) Demand and Generation of Electricity</text></g><g class="g-xtitle"><text class="xtitle" x="314" y="474" text-anchor="middle" style="font-family: 'Open Sans', verdana, arial, sans-serif; font-size: 14px; fill: rgb(68, 68, 68); opacity: 1; font-weight: normal; white-space: pre;"><tspan class="line" dy="0em" x="314" y="474">Eastern Time</tspan><tspan class="line" dy="1.3em" x="314" y="474"> Source: US Energy Information Administration</tspan></text></g><g class="g-ytitle"><text class="ytitle" transform="rotate(-90,22,223.5)" x="22" y="223.5" text-anchor="middle" style="font-family: 'Open Sans', verdana, arial, sans-serif; font-size: 14px; fill: rgb(68, 68, 68); opacity: 1; font-weight: normal; white-space: pre;">Megawatt-Hour</text></g></g></svg>